<mxfile host="app.diagrams.net" modified="2024-06-03T02:15:39.378Z" agent="Mozilla/5.0 (Macintosh; Intel Mac OS X 10_15_7) AppleWebKit/537.36 (KHTML, like Gecko) Chrome/125.0.0.0 Safari/537.36 Edg/125.0.0.0" etag="ep50tbigrTJ3mBvi7X9X" version="24.4.10" type="github">
  <diagram id="C5RBs43oDa-KdzZeNtuy" name="Page-1">
    <mxGraphModel dx="1146" dy="616" grid="1" gridSize="10" guides="1" tooltips="1" connect="1" arrows="1" fold="1" page="1" pageScale="1" pageWidth="827" pageHeight="1169" math="0" shadow="0">
      <root>
        <mxCell id="WIyWlLk6GJQsqaUBKTNV-0" />
        <mxCell id="WIyWlLk6GJQsqaUBKTNV-1" parent="WIyWlLk6GJQsqaUBKTNV-0" />
        <mxCell id="FpKd_2VouZCnrz_418Rt-0" value="半屏小程序支付流程" style="swimlane;childLayout=stackLayout;resizeParent=1;resizeParentMax=0;startSize=20;html=1;" parent="WIyWlLk6GJQsqaUBKTNV-1" vertex="1">
          <mxGeometry x="120" y="40" width="440" height="480" as="geometry" />
        </mxCell>
        <mxCell id="FpKd_2VouZCnrz_418Rt-1" value="小程序端" style="swimlane;startSize=20;html=1;" parent="FpKd_2VouZCnrz_418Rt-0" vertex="1">
          <mxGeometry y="20" width="200" height="460" as="geometry" />
        </mxCell>
        <mxCell id="QO5bE3Pow_UoGUW-x528-3" value="" style="rounded=1;whiteSpace=wrap;html=1;" vertex="1" parent="FpKd_2VouZCnrz_418Rt-1">
          <mxGeometry x="40" y="40" width="120" height="60" as="geometry" />
        </mxCell>
        <mxCell id="FpKd_2VouZCnrz_418Rt-2" value="&lt;span style=&quot;font-size: 12px;&quot;&gt;支付中心&lt;/span&gt;" style="swimlane;startSize=20;html=1;" parent="FpKd_2VouZCnrz_418Rt-0" vertex="1">
          <mxGeometry x="200" y="20" width="240" height="460" as="geometry" />
        </mxCell>
        <mxCell id="QO5bE3Pow_UoGUW-x528-1" style="edgeStyle=orthogonalEdgeStyle;rounded=0;orthogonalLoop=1;jettySize=auto;html=1;exitX=1;exitY=0.3333333333333333;exitDx=0;exitDy=0;exitPerimeter=0;entryX=0;entryY=0.5;entryDx=0;entryDy=0;" edge="1" parent="WIyWlLk6GJQsqaUBKTNV-1" source="QO5bE3Pow_UoGUW-x528-0" target="QO5bE3Pow_UoGUW-x528-3">
          <mxGeometry relative="1" as="geometry">
            <mxPoint x="150" y="110" as="targetPoint" />
          </mxGeometry>
        </mxCell>
        <mxCell id="QO5bE3Pow_UoGUW-x528-0" value="Actor" style="shape=umlActor;verticalLabelPosition=bottom;verticalAlign=top;html=1;outlineConnect=0;" vertex="1" parent="WIyWlLk6GJQsqaUBKTNV-1">
          <mxGeometry x="30" y="90" width="30" height="60" as="geometry" />
        </mxCell>
      </root>
    </mxGraphModel>
  </diagram>
</mxfile>
